<svg version="1.1" id="Layer_1" xmlns:x="ns_extend;" xmlns:i="ns_ai;" xmlns:graph="ns_graphs;" xmlns="http://www.w3.org/2000/svg" xmlns:xlink="http://www.w3.org/1999/xlink" x="0px" y="0px" viewBox="0 0 102.3 60.3" style="enable-background:new 0 0 102.3 60.3;" xml:space="preserve">
 <style type="text/css">
  .st0{fill:#782EFF;}
	.st1{fill:#F40953;}
	.st2{fill:#FF9408;}
	.st3{fill:#39C4C3;}
 </style>
 <metadata>
  <sfw xmlns="ns_sfw;">
   <slices>
   </slices>
   <sliceSourceBounds bottomLeftOrigin="true" height="60.3" width="102.3" x="-11" y="-222.5">
   </sliceSourceBounds>
  </sfw>
 </metadata>
 <g>
  <path class="st0" d="M76.6,10.4v26.2c0,0.3,0.1,0.5,0.2,0.8c0.1,0.2,0.3,0.4,0.6,0.6c0.2,0.1,0.5,0.2,0.8,0.2
		c0.3,0,0.5-0.1,0.8-0.2l22.6-13.1c0.2-0.1,0.4-0.3,0.6-0.6c0.1-0.2,0.2-0.5,0.2-0.8c0-0.3-0.1-0.5-0.2-0.8
		c-0.1-0.2-0.3-0.4-0.6-0.6L79,9.1c-0.2-0.1-0.5-0.2-0.8-0.2s-0.5,0.1-0.8,0.2c-0.2,0.1-0.4,0.3-0.6,0.6
		C76.7,9.9,76.6,10.1,76.6,10.4z">
  </path>
  <path class="st1" d="M25.9,50V23.7c0-0.3-0.1-0.6-0.2-0.8c-0.1-0.2-0.3-0.4-0.6-0.6c-0.2-0.1-0.5-0.2-0.8-0.2
		c-0.3,0-0.5,0.1-0.8,0.2L0.8,35.5c-0.2,0.1-0.4,0.3-0.6,0.6C0.1,36.3,0,36.6,0,36.8c0,0.3,0.1,0.5,0.2,0.8c0.1,0.2,0.3,0.4,0.6,0.6
		l22.7,13.1c0.2,0.1,0.5,0.2,0.8,0.2c0.3,0,0.6-0.1,0.8-0.2c0.2-0.1,0.4-0.3,0.6-0.6C25.8,50.5,25.9,50.2,25.9,50z">
  </path>
  <path class="st2" d="M38.3,32.5v26.2c0,0.3,0.1,0.5,0.2,0.8c0.1,0.2,0.3,0.4,0.6,0.6c0.2,0.1,0.5,0.2,0.8,0.2
		c0.3,0,0.5-0.1,0.8-0.2L63.2,47c0.2-0.1,0.4-0.3,0.6-0.6c0.1-0.2,0.2-0.5,0.2-0.8c0-0.3-0.1-0.5-0.2-0.8c-0.1-0.2-0.3-0.4-0.6-0.6
		L40.6,31.2c-0.2-0.1-0.5-0.2-0.8-0.2c-0.3,0-0.5,0.1-0.8,0.2c-0.2,0.1-0.4,0.3-0.6,0.6C38.3,32,38.3,32.3,38.3,32.5z">
  </path>
  <path class="st3" d="M64.2,27.8V1.6c0-0.3-0.1-0.6-0.2-0.8c-0.1-0.2-0.3-0.4-0.6-0.6C63.2,0.1,62.9,0,62.6,0
		c-0.3,0-0.5,0.1-0.8,0.2L39.3,13.3c-0.2,0.1-0.4,0.3-0.6,0.6s-0.2,0.5-0.2,0.8c0,0.3,0.1,0.6,0.2,0.8c0.1,0.2,0.3,0.4,0.6,0.6
		l22.6,13.1c0.2,0.1,0.5,0.2,0.8,0.2c0.3,0,0.6-0.1,0.8-0.2c0.2-0.1,0.4-0.3,0.6-0.6C64.1,28.4,64.2,28.1,64.2,27.8z">
  </path>
 </g>
</svg>